<!-- public/images/service_repair.svg -->
<svg width="64" height="64" viewBox="0 0 24 24" fill="none" xmlns="http://www.w3.org/2000/svg">
<path d="M12 2C17.5228 2 22 6.47715 22 12C22 17.5228 17.5228 22 12 22C6.47715 22 2 17.5228 2 12C2 6.47715 6.47715 2 12 2Z" stroke="#6366f1" stroke-width="2" stroke-linecap="round" stroke-linejoin="round"/>
<path d="M12 15C13.6569 15 15 13.6569 15 12C15 10.3431 13.6569 9 12 9C10.3431 9 9 10.3431 9 12C9 13.6569 10.3431 15 12 15Z" stroke="#6366f1" stroke-width="2" stroke-linecap="round" stroke-linejoin="round"/>
<path d="M12 2V9" stroke="#6366f1" stroke-width="2" stroke-linecap="round" stroke-linejoin="round"/>
<path d="M12 15V22" stroke="#6366f1" stroke-width="2" stroke-linecap="round" stroke-linejoin="round"/>
<path d="M22 12H15" stroke="#6366f1" stroke-width="2" stroke-linecap="round" stroke-linejoin="round"/>
<path d="M9 12H2" stroke="#6366f1" stroke-width="2" stroke-linecap="round" stroke-linejoin="round"/>
</svg>