<!-- public/images/helmet.svg -->
<svg width="64" height="64" viewBox="0 0 24 24" fill="none" xmlns="http://www.w3.org/2000/svg">
<path d="M12 2C17.5228 2 22 6.47715 22 12C22 17.5228 17.5228 22 12 22C6.47715 22 2 17.5228 2 12C2 6.47715 6.47715 2 12 2Z" stroke="#3b82f6" stroke-width="2" stroke-linecap="round" stroke-linejoin="round"/>
<path d="M12 2C14.7614 2 17 4.23858 17 7C17 9.76142 14.7614 12 12 12C9.23858 12 7 9.76142 7 7C7 4.23858 9.23858 2 12 2Z" stroke="#3b82f6" stroke-width="2" stroke-linecap="round" stroke-linejoin="round"/>
<path d="M7 12C7 14.7614 9.23858 17 12 17C14.7614 17 17 14.7614 17 12" stroke="#3b82f6" stroke-width="2" stroke-linecap="round" stroke-linejoin="round"/>
</svg>