<!-- public/images/tire.svg -->
<svg width="64" height="64" viewBox="0 0 24 24" fill="none" xmlns="http://www.w3.org/2000/svg">
<path d="M12 22C17.5228 22 22 17.5228 22 12C22 6.47715 17.5228 2 12 2C6.47715 2 2 6.47715 2 12C2 17.5228 6.47715 22 12 22Z" stroke="#3b82f6" stroke-width="2" stroke-linecap="round" stroke-linejoin="round"/>
<path d="M12 17C14.7614 17 17 14.7614 17 12C17 9.23858 14.7614 7 12 7C9.23858 7 7 9.23858 7 12C7 14.7614 9.23858 17 12 17Z" stroke="#3b82f6" stroke-width="2" stroke-linecap="round" stroke-linejoin="round"/>
<path d="M12 2V7" stroke="#3b82f6" stroke-width="2" stroke-linecap="round" stroke-linejoin="round"/>
<path d="M12 17V22" stroke="#3b82f6" stroke-width="2" stroke-linecap="round" stroke-linejoin="round"/>
<path d="M22 12H17" stroke="#3b82f6" stroke-width="2" stroke-linecap="round" stroke-linejoin="round"/>
<path d="M7 12H2" stroke="#3b82f6" stroke-width="2" stroke-linecap="round" stroke-linejoin="round"/>
</svg>